<?xml version="1.0" encoding="utf-8"?>
<!-- Generator: Adobe Illustrator 21.1.0, SVG Export Plug-In . SVG Version: 6.00 Build 0)  -->
<svg version="1.1" id="Layer_1" xmlns="http://www.w3.org/2000/svg" xmlns:xlink="http://www.w3.org/1999/xlink" x="0px" y="0px"
	 viewBox="0 0 80 41.2" style="enable-background:new 0 0 80 41.2;" xml:space="preserve">
<style type="text/css">
	.st0{fill:#FFFFFF;}
</style>
<path class="st0" d="M59.4,0c-4.7,0-9.4,1.7-13,4.6c-3.5,2.8-5.2,6.5-7,10.4c-1.2,2.7-2.4,5.4-3.7,8.2c-1.5,3.2-2.8,6.4-5.6,8.8
	c-2.6,2.2-6,3.4-9.5,3.4c-8.1,0-14.7-6.6-14.7-14.7S12.5,6,20.6,6c7.4,0,13.5,5.5,14.6,12.5l3.5-7.8C35.2,4.3,28.4,0,20.6,0
	C9.3,0,0,9.2,0,20.6s9.3,20.6,20.6,20.6c4.7,0,9.3-1.7,13-4.6c4.2-3.3,6-7.9,8.2-12.6c0.1-0.1,3.1-8,5.2-11.4
	c2.6-4.2,7.5-6.8,12.4-6.8c8.1,0,14.7,6.6,14.7,14.7s-6.6,14.7-14.7,14.7c-7.3,0-13.4-5.4-14.6-12.3l-3.5,7.7
	c3.5,6.3,10.3,10.6,18,10.6C70.7,41.2,80,32,80,20.6S70.7,0,59.4,0z"/>
</svg>
